<?xml version="1.0" encoding="UTF-8" standalone="no"?><!DOCTYPE svg PUBLIC "-//W3C//DTD SVG 1.1//EN" "http://www.w3.org/Graphics/SVG/1.1/DTD/svg11.dtd"><svg width="100%" height="100%" viewBox="0 0 132 96" version="1.1" xmlns="http://www.w3.org/2000/svg" xmlns:xlink="http://www.w3.org/1999/xlink" xml:space="preserve" xmlns:serif="http://www.serif.com/" style="fill-rule:evenodd;clip-rule:evenodd;stroke-linejoin:round;stroke-miterlimit:2;"><g><path d="M57.989,85.435c0.047,0.152 -0.027,0.314 -0.172,0.381c-0.145,0.066 -0.316,0.015 -0.402,-0.119c-0,0 -0,0 -0,0c-0.571,-0.895 -1.294,-1.912 -2.128,-3.012c-11.123,-14.665 -26.639,-25.431 -44.309,-30.743c-1.457,-0.441 -2.839,-0.858 -4.098,-1.224c-2.096,-0.611 -4.057,-1.181 -5.604,-1.632c-0.638,-0.185 -1.119,-0.711 -1.244,-1.361c-0.126,-0.65 0.125,-1.315 0.648,-1.724c0.358,-0.279 0.718,-0.549 1.079,-0.812c7.314,-5.367 16.667,-7.168 25.464,-4.904c0.691,0.146 1.389,0.325 2.091,0.506c9.307,2.395 17.641,7.599 23.859,14.899c0,-0 0,-0 0,-0c8.111,9.521 12.608,21.575 12.705,34.059c0.044,2.064 0.075,3.87 0.059,5.157c-0.007,0.209 -0.167,0.38 -0.376,0.401c-0.208,0.021 -0.4,-0.114 -0.449,-0.317c-0.229,-0.947 -0.424,-1.758 -0.424,-1.758c-1.386,-5.765 -5.782,-13.664 -9.829,-20.117c-4.481,-7.158 -10.338,-13.364 -17.235,-18.261c-1.962,-1.426 -3.545,-2.523 -3.842,-2.656c-0.156,-0.069 -0.338,-0.013 -0.427,0.132c-0.089,0.145 -0.057,0.333 0.076,0.439c1.122,0.899 2.639,2.117 4.382,3.514c9.515,7.631 16.471,17.796 20.176,29.152Zm15.608,-3.618c-0.098,0.244 -0.347,0.394 -0.611,0.368c-0.263,-0.026 -0.477,-0.222 -0.525,-0.481c-0.097,-0.217 -0.245,-0.51 -0.436,-0.865c-6.468,-12.154 -9.978,-25.65 -10.247,-39.402c-0.02,0.001 -0.02,0.001 -0.02,0.001c-0.235,-12.251 4.608,-24.058 13.391,-32.641c4.014,-3.926 8.433,-7.315 12.584,-8.492c0,0 0.001,0 0.001,-0c0.653,-0.185 1.353,-0.095 1.938,0.248c0.584,0.343 1.527,1.978 1.54,2.002c0,0 0,0 0,0c5.26,9.778 5.219,21.536 -0.11,31.277c-0.593,1.084 -1.192,2.179 -1.785,3.263c-6.162,11.262 -9.989,23.642 -11.253,36.404c-0.403,4.166 -0.505,7.777 0.045,9.594c0.085,0.283 -0.11,0.576 -0.398,0.645c-0.289,0.069 -0.579,-0.107 -0.65,-0.393c-0.621,-2.277 -1.398,-5.416 -1.398,-5.416c-2.184,-8.828 -3.127,-17.916 -2.8,-27.003c-0,-0 -0,-0 -0,-0c0.16,-4.472 0.644,-8.926 1.449,-13.328c0.42,-2.301 0.879,-4.817 1.253,-6.864c0.026,-0.142 -0.063,-0.279 -0.203,-0.314c-0.141,-0.035 -0.284,0.045 -0.328,0.182c-0.01,0.03 -0.023,0.074 -0.04,0.129c-4.163,13.075 -5.22,26.934 -3.088,40.486c0.593,3.956 1.184,7.769 1.691,10.6Zm-18.897,-31.059c0.174,0.171 0.446,0.195 0.648,0.059c0.202,-0.137 0.278,-0.398 0.182,-0.621c-1.303,-3.039 -3.374,-7.867 -3.374,-7.867c-2.431,-5.666 -6.703,-10.356 -12.13,-13.316c-0.001,-0.001 -0.001,-0.001 -0.002,-0.001c-0.055,-0.03 -0.076,-0.098 -0.048,-0.154c0.028,-0.056 0.096,-0.079 0.153,-0.053c0.892,0.412 1.861,0.859 2.745,1.268c2.001,0.924 3.792,2.244 5.263,3.879c0.001,0 0.001,0 0.001,0c3.915,4.351 7.048,9.34 9.261,14.75l1.047,2.558c0.114,0.279 0.424,0.426 0.714,0.338c0.29,-0.089 0.464,-0.382 0.402,-0.678c-0.565,-2.689 -1.228,-5.841 -1.812,-8.623c-0.999,-4.751 -3.143,-9.19 -6.248,-12.933c-0,0 -0,0 -0,0c-4.228,-5.095 -10.304,-8.324 -16.908,-8.984c-3.25,-0.321 -6.863,-0.445 -9.35,0.194c-0.353,0.091 -0.991,0.329 -1.639,0.586c-0.56,0.197 -0.995,0.642 -1.178,1.204c-0.183,0.562 -0.092,1.177 0.246,1.663c-0.002,0.002 -0.002,0.003 -0.001,0.004c1.078,1.55 3.489,3.24 6.218,4.802c8.194,4.693 15.574,10.671 21.856,17.704c1.319,1.534 2.676,2.982 3.954,4.221Z" style="fill:#323b45;fill-opacity:0.1;"/><g><text x="-2.258px" y="57.178px" style="font-family:'Didot-Bold', 'Didot';font-weight:700;font-size:36.136px;fill:#323b45;">S<tspan x="29.927px 68.743px 103.581px " y="57.178px 57.178px 57.178px ">HEA</tspan></text><path d="M5.114,59.852l0,5.149l-0.969,-0l-0,-3.261l-1.251,2.268l-0.651,0l-1.273,-2.291l-0,3.284l-0.97,-0l-0,-5.149l0.97,-0l1.598,2.947l1.577,-2.947l0.969,-0Z" style="fill:#31a6ae;fill-rule:nonzero;"/><path d="M17.153,64.001l-2.169,-0l-0.37,1l-1.036,-0l2.094,-5.149l0.792,-0l2.095,5.149l-1.036,-0l-0.37,-1Zm-0.304,-0.814l-0.784,-2.096l-0.777,2.096l1.561,0Z" style="fill:#31a6ae;fill-rule:nonzero;"/><path d="M29.006,62.978l-1.014,0l0,2.023l-0.969,-0l-0,-5.149l2.22,-0c0.558,-0 0.998,0.134 1.321,0.403c0.323,0.268 0.485,0.656 0.485,1.164c-0,0.368 -0.088,0.673 -0.263,0.914c-0.175,0.241 -0.433,0.417 -0.773,0.526l1.265,2.142l-1.154,-0l-1.118,-2.023Zm-1.014,-0.835l1.281,-0c0.542,-0 0.814,-0.242 0.814,-0.724c-0,-0.239 -0.072,-0.418 -0.215,-0.537c-0.143,-0.12 -0.343,-0.179 -0.599,-0.179l-1.281,-0l0,1.44Z" style="fill:#31a6ae;fill-rule:nonzero;"/><path d="M41.577,62.628l-0.865,0.94l-0,1.433l-0.97,-0l-0,-5.149l0.97,-0l-0,2.5l2.176,-2.5l1.243,-0l-1.902,2.074l2.05,3.075l-1.177,-0l-1.525,-2.373Z" style="fill:#31a6ae;fill-rule:nonzero;"/><path d="M53.712,60.703l0,1.276l2.302,-0l-0,0.85l-2.302,0l0,1.321l2.679,0l0,0.851l-3.648,-0l-0,-5.149l3.648,-0l0,0.851l-2.679,-0Z" style="fill:#31a6ae;fill-rule:nonzero;"/><path d="M68.889,60.703l-1.532,-0l-0,4.298l-0.97,-0l0,-4.298l-1.532,-0l0,-0.851l4.034,-0l-0,0.851Z" style="fill:#31a6ae;fill-rule:nonzero;"/><path d="M79.558,59.852c0.572,-0 1.02,0.139 1.343,0.418c0.323,0.278 0.485,0.676 0.485,1.194c0,0.497 -0.162,0.885 -0.485,1.164c-0.323,0.278 -0.783,0.418 -1.38,0.418l-1.199,-0l-0,1.955l-0.97,-0l0,-5.149l2.206,-0Zm0.037,2.335c0.548,0 0.821,-0.243 0.821,-0.731c0,-0.254 -0.071,-0.443 -0.214,-0.567c-0.143,-0.124 -0.346,-0.186 -0.607,-0.186l-1.273,-0l-0,1.484l1.273,0Z" style="fill:#31a6ae;fill-rule:nonzero;"/><path d="M89.85,59.852l0.969,-0l0,4.298l2.635,0l0,0.851l-3.604,-0l-0,-5.149Z" style="fill:#31a6ae;fill-rule:nonzero;"/><path d="M105.493,64.001l-2.169,-0l-0.37,1l-1.036,-0l2.094,-5.149l0.792,-0l2.095,5.149l-1.036,-0l-0.37,-1Zm-0.304,-0.814l-0.784,-2.096l-0.778,2.096l1.562,0Z" style="fill:#31a6ae;fill-rule:nonzero;"/><path d="M117.538,65.083c-0.685,-0 -1.22,-0.189 -1.602,-0.567c-0.382,-0.378 -0.574,-0.943 -0.574,-1.694l0,-0.806c0,-0.751 0.193,-1.316 0.578,-1.694c0.385,-0.378 0.92,-0.567 1.606,-0.567c0.626,-0 1.126,0.155 1.499,0.466c0.372,0.311 0.558,0.743 0.558,1.295l0,0.06l-0.969,-0l-0,-0.03c-0,-0.289 -0.096,-0.516 -0.289,-0.683c-0.192,-0.167 -0.459,-0.25 -0.799,-0.25c-0.405,-0 -0.707,0.119 -0.907,0.358c-0.2,0.239 -0.3,0.605 -0.3,1.097l0,0.739c0,0.472 0.102,0.823 0.304,1.052c0.202,0.229 0.506,0.343 0.91,0.343c0.341,0 0.606,-0.081 0.796,-0.242c0.19,-0.162 0.285,-0.385 0.285,-0.668l-0,-0.037l0.962,-0l-0,0.037c-0,0.567 -0.185,1.007 -0.555,1.321c-0.37,0.313 -0.871,0.47 -1.503,0.47Z" style="fill:#31a6ae;fill-rule:nonzero;"/><path d="M129.037,60.703l-0,1.276l2.301,-0l0,0.85l-2.301,0l-0,1.321l2.679,0l-0,0.851l-3.649,-0l-0,-5.149l3.649,-0l-0,0.851l-2.679,-0Z" style="fill:#31a6ae;fill-rule:nonzero;"/></g></g></svg>